<svg width="301" height="190" viewBox="0 0 301 190" fill="none" xmlns="http://www.w3.org/2000/svg">
<path d="M120.206 30H152.862L158.413 30.9619L162.005 32.2445L165.271 34.1684L166.903 35.4509L169.842 39.6193L171.149 43.467L171.475 46.0321V48.9179L170.822 52.7656L168.536 57.2546L165.924 60.1404L163.311 61.7436L167.23 63.3469L170.169 65.2707L172.455 67.5152L174.414 70.7216L175.394 73.6074L175.72 75.5313V80.6616L174.741 84.5093L173.435 87.0744L172.128 87.7157L158.74 89.9602L146.657 92.5254L134.248 95.7318L121.186 99.5795H120.206V30Z" fill="#C09946"/>
<path d="M134.247 67.8358H151.881L155.8 68.4771L158.413 69.7597L160.372 72.0042L161.352 74.2487L161.678 77.7757L161.025 80.6615L159.719 82.5854L157.433 84.5092L154.82 85.4712L153.188 85.7918H134.247L133.921 68.1565L134.247 67.8358Z" fill="#F8F8F8"/>
<path d="M133.921 41.5431H151.555L154.82 42.8257L156.453 44.4289L157.433 46.3527L157.759 47.6353V50.5211L156.78 53.7275L154.167 55.972L151.228 56.9339H133.921V41.5431Z" fill="#F8F8F8"/>
<path d="M205.11 84.5093H207.07V84.8299L190.742 87.7157L177.026 90.6015L165.27 93.4873L151.882 97.335L138.493 101.503L124.124 106.634L114.654 110.481L106.164 114.329L102.572 113.367L98.3266 112.085L98 111.443L106.817 107.916L120.532 103.107L130.656 99.9001L144.044 96.0524L162.331 91.5634L177.026 88.6776L193.028 86.1125L205.11 84.5093Z" fill="#0F3655"/>
<path d="M170.496 94.4492L171.802 94.7699L166.903 96.6937L156.127 101.503L147.637 105.992L141.432 109.519L133.595 114.65L129.023 118.177L126.084 117.856L119.226 116.574L118.573 115.932L132.289 108.878L138.493 105.992L149.269 101.503L161.025 97.335L170.496 94.4492Z" fill="#BC8F39"/>
<path d="M99 130H115.991L119.708 131.579L121.832 133.684L122.363 134.737V140.526L119.177 144.737L122.363 146.842L123.425 148.947V154.211L121.832 157.368L118.115 159.474L115.46 160H99V130Z" fill="#BC8F39"/>
<path d="M104.841 146.842H114.398L117.053 148.421L117.584 149.474V152.632L115.46 154.737H104.841V146.842Z" fill="#F8F8F8"/>
<path d="M104.841 134.737H113.336L115.991 136.316L116.522 140L113.867 142.632H104.841V134.737Z" fill="#F8F8F8"/>
<path d="M270.46 138.421H274.177L278.424 140L282.141 144.21L283.203 147.368V151.579H266.743L268.336 155.263L270.991 156.316L275.77 155.789L277.363 154.21L280.017 154.737L281.61 155.789L280.548 157.895L277.363 160.526L275.77 161.053H268.867L264.619 158.947L261.964 155.789L260.902 153.158V146.842L263.026 142.632L266.743 139.474L270.46 138.421Z" fill="#0F3655"/>
<path d="M184.443 138.421L189.752 138.947L193.469 141.053L195.062 144.21L195.593 155.789L196.655 156.316V161.053H192.407L190.283 159.474V157.895H189.221V158.947L185.505 161.053H179.664L177.009 159.474L175.416 156.842V152.632L177.009 150L180.195 147.895H189.221L188.159 144.21L187.097 143.684H182.319L179.133 145.263L177.54 144.737L176.478 141.579L179.664 139.474L184.443 138.421Z" fill="#0F3655"/>
<path d="M200.902 138.947H205.681L206.743 141.579L210.991 138.947H217.363L220.548 141.579L221.61 144.737V160.526L221.079 161.053H216.301L215.77 160.526L215.239 145.263L214.177 144.211H209.929L207.274 146.316L206.743 161.053H200.902V138.947Z" fill="#0F3655"/>
<path d="M134 131.053H158.425V136.316H149.398V160.526L148.867 161.053H143.558V136.316H134V131.053Z" fill="#0F3655"/>
<path d="M232.761 138.421H237.009L242.318 140L243.38 142.105L241.787 144.737L236.478 143.158H233.292L232.23 143.684L231.699 146.316L238.071 147.895L241.787 149.474L243.911 152.105V156.316L241.787 159.474L238.601 161.053H230.637L225.327 158.421L226.389 155.263L227.982 154.737L231.699 156.316H237.54L238.071 153.684L228.513 150.526L226.389 148.421L225.858 144.21L227.451 141.053L230.637 138.947L232.761 138.421Z" fill="#0F3655"/>
<path d="M254 130H259.31L261.434 131.053L260.372 135.263H255.593L255.062 138.947L259.841 139.474V143.158L259.31 143.684H254.531L255.062 160.526L254.531 161.053H249.221V143.684H246.035L245.504 143.158V139.474H249.221V135.263L250.814 132.105L254 130Z" fill="#0F3655"/>
<path d="M298.602 138.421H300.195V143.684L295.416 144.737L293.292 146.316L292.761 161.053H287.451L286.92 160V139.474L287.451 138.947H292.23L292.761 142.105L296.478 138.947L298.602 138.421Z" fill="#0F3655"/>
<path d="M171.699 138.421H173.292V143.684L168.513 145.263L166.92 146.842L166.389 161.053H161.079L160.548 160L161.079 138.947H165.858V142.105L170.106 138.947L171.699 138.421Z" fill="#0F3655"/>
<path d="M270.991 142.632L274.708 143.158L277.363 145.789L277.894 147.895H266.212L267.805 144.211L270.991 142.632Z" fill="#F8F8F8"/>
<path d="M183.38 151.053H189.221V155.263L187.097 156.842L183.38 157.368L181.257 156.316L180.726 152.632L183.38 151.053Z" fill="#F8F8F8"/>
<path d="M0 131H16.9912L21.2389 132.579L23.3628 135.737L23.8938 139.947L22.3009 143.632L20.708 145.737L23.8938 148.368L24.4248 149.421V155.737L22.3009 158.895L19.115 160.474L16.9912 161H0V131Z" fill="#BC8F39"/>
<path d="M36.6374 138.368H40.8852L46.1949 140.474L49.3808 144.684L50.4427 148.895L49.9117 151.526H33.4515L35.0445 154.684L37.6993 156.263L41.9471 155.737L44.071 154.158L46.7259 154.684L48.8498 155.737L47.7878 157.842L44.602 160.474L38.2303 161.526L32.9206 159.947L29.2038 156.789L27.6108 153.632V146.263L29.2038 143.105L31.8586 140.474L34.5135 138.895L36.6374 138.368Z" fill="#BC8F39"/>
<path d="M59.4688 138.368H63.7166L69.0263 139.947L70.0883 140.474L69.5573 143.105L68.4953 144.684L64.7785 143.632H58.9378L58.4068 146.263L66.9024 148.368L70.0883 150.474L70.6192 151.526V156.789L67.9644 159.947L65.3095 161H57.3449L52.5661 158.895L52.0352 156.789L53.6281 154.158L58.4068 156.263H64.2475L64.7785 154.158L61.5927 152.579L56.2829 151L53.6281 149.421L52.5661 147.316V143.632L54.69 140.474L57.3449 138.895L59.4688 138.368Z" fill="#BC8F39"/>
<path d="M75.3982 132.579H81.239V138.895H86.5487V143.632H81.239L81.7699 155.737H86.5487L87.0797 160.474L81.239 161.526L77.5221 159.947L75.9292 157.842L75.3982 156.263V143.632H72.2124V139.421L74.8673 138.895L75.3982 132.579Z" fill="#BC8F39"/>
<path d="M5.84082 147.842H15.3983L18.0532 149.421L18.5842 149.947V154.158L16.4603 155.737H5.84082V147.842Z" fill="#F8F8F8"/>
<path d="M38.7609 142.579L42.4777 143.632L44.6016 146.79V147.842H33.4512L33.9821 145.211L36.637 143.105L38.7609 142.579Z" fill="#F8F8F8"/>
<path d="M5.84082 136.263H15.3983L17.5222 138.368L16.9913 142.053L15.9293 143.105H5.84082V136.263Z" fill="#F8F8F8"/>
</svg>
